<svg width="1154" height="818" viewBox="0 0 1154 818" xmlns="http://www.w3.org/2000/svg"><title>Layer_1</title><g id="Homepage" fill="none" fill-rule="evenodd"><path d="M554.463 279.326c6.43 5.729 14.753 35.265 14.753 52.339 0 5.892 1.382 10.714 3.07 10.714 1.685 0 4.696 2.186 6.69 4.86 1.994 2.676 7.19 5.536 11.547 6.357 9.172 1.733 17.17 8.077 10.18 8.077-3.244 0-2.866 1.697 1.415 6.357 6.48 7.054 12.293 5.86 9.27-1.899-2.88-7.388 42.007 15.813 47.297 24.45 3.272 5.336 5.28 6.124 8.643 3.375 3.376-2.76 5.928-1.64 11.114 4.851 6.36 7.967 7.142 8.149 14.12 3.335 10.481-7.23 28.255-6.22 43.474 2.469 15.056 8.598 16.63 8.452 11.466-1.061-3.299-6.067-2.048-8.75 10.22-21.98 7.686-8.292 16.12-16.682 18.744-18.65 4.133-3.102 3.908-5.286-1.672-16.398-3.756-7.479-6.29-18.706-6.076-26.952.266-10.55-1.3-15.452-6.186-19.352-6.494-5.178-6.474-5.288 2.25-13.254 4.835-4.417 8.798-10.461 8.798-13.433 0-8.511-10.391-48.197-13.503-51.576-3.448-3.744-77.442-4.834-84.931-1.253-8.25 3.95-25.621-3.228-25.621-10.588 0-3.418-2.407-7.126-5.348-8.237-6.296-2.379-38.921 7.901-43.927 13.844-1.905 2.26-11.061 6.55-20.35 9.534-27.357 8.794-28.274 9.569-24.939 21.027 2.09 7.184 1.597 12.557-1.738 18.911-4.184 7.975-4.06 9.405 1.24 14.133zm177.782 126.161c-13.83-6.495-30.505-6.712-38.84-.503-7.915 5.898-14.499 6.235-14.499.745 0-2.301-1.744-5.899-3.874-7.995-2.987-2.944-5.227-2.61-9.794 1.461-3.435 3.068-5.92 3.75-5.92 1.636 0-2.71-2.091-2.708-8.163.016-4.488 2.016-8.161 5.378-8.161 7.472 0 5.776-10.417 13.735-19.588 14.964-12.284 1.654-12.815 15.741-1.003 26.639 5.94 5.481 11.463 7.865 15.695 6.778 3.59-.924 9.1-1.7 12.244-1.724 3.14-.024 5.712-2.216 5.712-4.866 0-2.973 3.062-4.825 7.968-4.825 4.384 0 8.793-1.312 9.797-2.912 1.005-1.605 4.64-2.19 8.079-1.308 4.067 1.05 7.483-.665 9.793-4.923 2.696-4.955 6.71-6.49 16.65-6.354 7.201.099 13.9 1.456 14.878 3.015 3.823 6.095 9.794 2.216 14.853-9.66l5.296-12.429-11.123-5.227zm-155.357-50.773c-1.346.292-2.447-1.512-2.447-4.004 0-6.632-29.642.712-51.621 12.785-15.079 8.288-16.938 10.412-15.295 17.475 1.03 4.42 11.378 17.248 22.997 28.506 22.178 21.492 24.31 21.936 35.853 7.481 2.636-3.299 5.459-3.42 13.06-.551 13.688 5.168 37.444 7.016 37.444 2.914 0-1.846 1.61-2.38 3.575-1.181 4.773 2.907 19.278-4.958 19.278-10.45 0-2.393 3.672-5.997 8.161-8.013 13.013-5.838 10.456-10.15-13.484-22.741-14.83-7.804-17.22-8.247-20.892-3.89-3.674 4.36-5.01 4.123-11.718-2.085-4.162-3.852-6.892-8.087-6.062-9.411 1.464-2.328-13.901-7.9-18.849-6.835zM456.005 488.866c-6.982 2.64-15.233-6.009-16.02-16.793-.719-9.87-1.156-10.15-13.941-8.954-28.549 2.666-35.862 4.828-44.762 13.23-5.086 4.8-9.246 10.674-9.246 13.05 0 2.377-2.195 5.15-4.878 6.168-6.814 2.575-2.978 7.341 4.382 5.444 4.336-1.117 7.126 1.063 9.945 7.762 3.318 7.891 5.39 9.1 13.556 7.921 5.303-.769 9.642-3.35 9.642-5.739 0-2.39 2.776-5.811 6.168-7.598 5.011-2.643 6.502-1.997 7.946 3.442 2.066 7.78 8.383 6.737 13.401-2.215a845.538 845.538 0 0 1 4.235-7.503c.407-.696 2.877.488 5.493 2.627 3.823 3.123 6.086 2.581 11.505-2.76 7.72-7.603 8.598-10.355 2.574-8.082zm171.433 26.8c15.525 7.57 19.364 8.176 23.882 3.772 3.372-3.287 13.398-5.773 39.643-9.831 19.836-3.068 23.853-5.048 23.853-11.772 0-8.632 23.095-42.214 30.31-44.076 6.895-1.775 6.892-1.796-.771-8.346-4.23-3.607-11.134-6.561-15.347-6.561-4.215 0-7.662-1.302-7.662-2.893 0-1.596-5.475-2.897-12.164-2.897-8.434 0-13.558 1.96-16.706 6.387-2.793 3.925-6.908 5.777-10.687 4.802-3.381-.87-6.15-.272-6.15 1.332 0 1.603-3.672 2.915-8.16 2.915-4.727 0-8.162 1.85-8.162 4.4 0 6.912-26.32 9.275-33.363 2.999-5.169-4.61-5.858-4.589-7.726.202-1.127 2.895-4.183 5.26-6.789 5.26-2.608 0-3.908 1.323-2.895 2.942 1.016 1.616.578 3.428-.972 4.023-1.549.59-3.785 6.276-4.97 12.632-2.684 14.427 4.863 24.97 24.836 34.71zM896 451.713c-2.692 0-4.898-1.602-4.898-3.56 0-1.959-2.203-2.727-4.896-1.709-2.695 1.02-4.894.627-4.894-.872 0-4.71-19.101-10.757-27.457-8.69l-7.99 1.978 8.06 13.66c13.536 22.945 15.849 26.448 18.886 28.615 1.611 1.153 3.233 9.836 3.606 19.295.373 9.463.89 19.823 1.154 23.022.724 8.851 6.945 3.171 14.182-12.943 5.526-12.298 7.51-14.071 13.981-12.47 5.006 1.236 8.17.252 9.412-2.937 1.03-2.638.547-4.8-1.072-4.8-1.62 0-3.922-3.038-5.116-6.75-1.195-3.713-5.113-9.645-8.71-13.182-4.75-4.685-5.551-7.402-2.938-9.975 5.026-4.954 4.467-8.682-1.31-8.682zM771.947 34.42c2.02 1.462 1.697 2.38-.843 2.412-3.3.04-3.3 1.47 0 7.285 5.42 9.545 9.966 12.517 12.633 8.262 3.686-5.872 8.641-.013 7.024 8.308-1.55 7.98 2.565 9.48 11.294 4.109 4.641-2.858 19.439 5.756 28.172 16.407 4.662 5.684 7.058 6.544 10.467 3.76 2.43-1.988 6.064-2.612 8.078-1.387 2.014 1.224 6.539-.817 10.056-4.538 4.99-5.275 5.653-8.139 3.015-12.995-5.775-10.624-3.758-29.993 4.629-44.436l7.932-13.667h-14.29c-7.857 0-18.425-1.583-23.48-3.518-12.623-4.834-23.676-5.84-25.864-2.349-1.009 1.602-4.475 2.085-7.71 1.075-6.104-1.908-22.95 4.074-22.95 8.148 0 1.28-3.05 3.111-6.776 4.07-4.864 1.252-6.478 3.855-5.714 9.219.582 4.11 2.531 8.535 4.327 9.835zm-180.92 467.972c10.044-5.65 10.235-14.445.223-10.296-9.481 3.925-31.149 8.483-42.928 9.024-13.172.607-15.256 7.328-6.864 22.146 5.114 9.034 11.412 11.388 15.03 5.618 1.353-2.155 4.051-2.155 8.14 0 8.362 4.409 10.829 4.05 8.753-1.28-1.06-2.72.862-5.18 4.84-6.206 4.6-1.186 6.03-3.472 4.724-7.554-1.344-4.205.928-7.428 8.081-11.452zm305.733 35.722c-6.067 5.982-18.057 4.313-20.358-2.831-1.15-3.56-2.571-15.501-3.16-26.532-.897-16.68-3.397-23.975-14.882-43.37-14.318-24.185-17.119-26.248-25.758-18.978-2.839 2.383-12.168 6.54-20.737 9.228-13.248 4.164-15.962 4.225-18.128.415-1.454-2.557-5.985-3.961-10.536-3.27-4.392.668-12.321-.002-17.615-1.49-7.761-2.183-11.086-1.362-17.14 4.244-4.131 3.826-7.512 5.694-7.512 4.154 0-4.737-20.402 28.505-22.738 37.048-1.908 6.967-6.618 10.82-21.332 17.452-1.797.81-.694 3.076 2.447 5.035 3.14 1.957 5.713 6.151 5.713 9.317 0 3.167 3.644 7.391 8.097 9.391 4.772 2.141 7.395 5.442 6.38 8.038-2.468 6.341 7.02 12.884 18.225 12.57 5.294-.148 10.474 1.083 11.507 2.733 1.033 1.65-.04 3.046-2.393 3.103-2.439.063-1.017 2.782 3.322 6.341 4.176 3.431 6.658 7.726 5.522 9.542-1.189 1.893 1.14 3.328 5.46 3.357 4.147.024 9.424 1.224 11.724 2.665 7.47 4.667 41.417 2.36 50.38-3.426 4.626-2.986 12.16-6.356 16.743-7.49 9.152-2.263 31.526 3.735 31.526 8.45 0 1.63 2.94 2.964 6.528 2.964 4.491 0 6.53-2.141 6.53-6.86 0-9.516 7.028-31.73 10.041-31.73 1.362 0 3.03 1.643 3.71 3.65 1.378 4.069 12.37-5.18 12.37-10.412-.003-4.939-9.892-7.292-13.936-3.308zM754.35 135.398c13.269 1.1 26.328 2.357 29.02 2.784 2.696.428 6.896-.792 9.332-2.708 3.316-2.602 5.47-2.092 8.523 2.021 2.247 3.028 6.543 5.507 9.537 5.507 3.002 0 10.012 5.112 15.586 11.362 9.131 10.247 10.664 10.891 15.526 6.557 2.968-2.649 8.283-4.178 11.808-3.399 4.297.95 8.908-1.74 14.006-8.164 6.79-8.562 7.196-10.778 3.816-20.862-2.079-6.206-5.097-10.48-6.705-9.498-1.638.995-2.165-3.595-1.191-10.43 1.54-10.839.697-12.812-7.48-17.571-6.476-3.768-10.869-4.45-14.787-2.29-4.263 2.35-7.276 1.15-12.793-5.106-13.79-15.622-20.427-18.218-32.022-12.52-8.896 4.373-9.99 6.258-8.226 14.174 3.736 16.753-11.37 32.518-24.517 25.587-3.59-1.893-6.53-4.99-6.53-6.884 0-1.893-3.305-7.305-7.344-12.028-6.507-7.605-8.463-8.215-17.14-5.33-11.516 3.832-14.569 7.303-14.64 16.64-.027 3.778-2.242 11.012-4.925 16.08-2.683 5.066-4.886 13.308-4.896 18.318l-.023 9.104 10.97-6.68c9.513-5.787 14.176-6.41 35.095-4.664zm115.306 18.372c-6.095 6.832-10.096 8.69-15.721 7.297-5.967-1.474-8.384-.044-11.567 6.832-2.626 5.68-2.863 9.079-.68 9.794 3.907 1.284 1.131 10.329-3.166 10.329-4.645 0-15.975 12.41-15.975 17.498 0 2.547-1.57 5.588-3.485 6.756-1.922 1.168-2.706 4.13-1.75 6.582.953 2.452.689 4.24-.595 3.972-5.16-1.083-20.13 4.646-18.582 7.107 2.25 3.591-8.235 6.572-17.16 4.879-10.22-1.94-11.813 2.601-7.344 20.948 4.31 17.698 2.23 31.946-4.662 31.946-7.667 0-8.722 9.278-1.488 13.09 4.392 2.315 6.15 5.67 5.08 9.694-2.29 8.62 3.522 11.048 10.84 4.524 9.418-8.395 66.358-6.495 72.192 2.414 1.12 1.705 12.873 3.753 26.116 4.543 13.248.795 28.369 1.728 33.605 2.084 5.238.348 10.36 2.805 11.384 5.458 1.138 2.946 2.304 1.072 2.996-4.826 1.346-11.499 8.08-19.633 18.349-22.175 6.734-1.664 7.262-3.1 5.198-14.202-1.261-6.794-3.397-14.113-4.746-16.265-3.894-6.206 4.465-14.204 10.062-9.628 3.407 2.784 6.602 2.813 12.625.108 8.473-3.802 10.328-8.434 4.747-11.829-1.823-1.11-2.471-3.366-1.438-5.015 1.779-2.835-.143-3.547-11.567-4.29-2.692-.174-4.895-2.488-4.895-5.139 0-2.65-2.572-6.71-5.714-9.019-3.14-2.31-17.987-27.741-15.13-33.916 2.74-5.926 2.534-9.974-.866-16.961-5.411-11.116-21.234-19.676-26.602-14.389-5.095 5.019-9.848 4.395-7.743-1.016 1.89-4.844-6.175-9.553-11.162-6.518-1.637.997-2.97.12-2.97-1.94 0-2.063-2.206-2.918-4.899-1.899-2.692 1.016-4.942.086-4.999-2.066-.059-2.16-3.788.2-8.288 5.238zM601.863 463.775c.178-2.213 3.265-4.844 6.855-5.851 6.794-1.905 6.982-3.666 2.366-22.287-1.996-8.056-4.474-11.11-8.71-10.739-3.257.283-11.604-1.461-18.55-3.874-11.938-4.147-13.1-3.961-21.18 3.414-6.652 6.073-9.895 7.1-14.595 4.625-4.382-2.315-7.643-1.865-11.863 1.631-3.2 2.655-8.475 6.701-11.723 8.997-4.92 3.48-5.324 5.683-2.425 13.196 4.336 11.231 1.764 15.943-6.068 11.125-4.471-2.753-9.468-2.65-20.252.411-7.876 2.238-17.99 4.294-22.478 4.574-4.49.278-9.702 1.471-11.582 2.654-1.881 1.184-5.554.825-8.162-.802-7.48-4.66-9.637-3.624-9.637 4.642 0 8.288 8.88 13.786 14.048 8.695 2.038-2.009 4.865-1.436 7.96 1.615 3.725 3.67 5.833 3.88 9.42.95 2.54-2.079 7.893-4.163 11.895-4.64 4.003-.476 9.49-1.737 12.199-2.81 3.153-1.247 6.08.65 8.161 5.294 2.408 5.378 7.86 8.219 21.197 11.04 9.876 2.093 21.628 3.134 26.115 2.311 35.576-6.514 45.52-11.298 46.195-22.223.24-3.985.512-7.967.814-11.948zm547.157-66.72c-8.981-6.672-38.542-16.857-42.296-14.577-1.641 1-5.603-2.548-8.804-7.886-6.58-10.97-9.775-11.757-19.761-4.866-6.263 4.319-7.556 4.296-12.142-.222-3.043-2.994-7.717-4.245-11.475-3.072-4.311 1.348-7.413.009-9.69-4.18-1.842-3.39-2.465-7.031-1.387-8.094 2.907-2.867-8.377-18.508-12.947-17.937-11.128 1.382-14.701-.83-16.057-9.923-.79-5.303-.183-9.645 1.346-9.645 1.53 0 .598-4.164-2.073-9.25-4.901-9.336-19.796-15.248-23.506-9.331-1.059 1.683-4.627 2.367-7.93 1.514-3.302-.85-6.536.023-7.182 1.935-.648 1.917-8.005 3.713-16.355 3.987-18.819.627-25.218 5.595-25.218 19.58 0 11.137-5.227 14.73-8.65 5.94-1.195-3.06-4.194-4.208-7.938-3.038-3.31 1.036-9.105.254-12.878-1.737-4.854-2.558-8.083-2.615-11.035-.203-2.294 1.875-5.258 2.335-6.592 1.026-1.33-1.31-9.064-2.551-17.187-2.754-8.126-.202-15.716-1.801-16.867-3.557-5.909-8.973-59.067-11.164-67.577-2.784-2.844 2.806-6.434 5.101-7.97 5.101-5.294 0-5.316 11.279-.031 19.296 2.913 4.422 5.068 10.213 4.79 12.865-.31 2.95-.644 5.898-1.001 8.843-.275 2.209-1.97 4.02-3.77 4.02-4.538 0-27.878 26.078-27.134 30.314.336 1.898 1.672 6.95 2.974 11.229 1.912 6.288 1.374 7.405-2.806 5.823-8.188-3.096-13.914 16.185-7.03 23.678 5.568 6.06 26.568 11.125 41.445 9.999 5.154-.394 9.8 1.186 10.763 3.652 2.317 5.946 32.848-3.768 40.29-12.823 8.899-10.829 45.532-5.97 62.965 8.348 3.715 3.054 5.014 7.198 3.776 12.058-1.384 5.434-.49 7.408 3.362 7.408 3.353 0 5.252 2.766 5.252 7.645 0 4.207 2.114 9.377 4.703 11.494 2.584 2.112 3.896 5.908 2.913 8.431-.982 2.523.085 4.588 2.37 4.588 6.074 0 1.834 3.2-6.278 4.742-3.837.723-6.973-.045-6.973-1.71 0-6.632-5.305-2.303-13.058 10.663-12.524 20.932-13.763 25.001-7.227 23.741 17.488-3.373 46.401-25.426 46.401-35.397 0-4.647 3.515-6.141 23.11-9.829 2.836-.53 7.967 1.06 11.409 3.54 5.309 3.824 5.53 4.945 1.466 7.419-4.206 2.564-4.202 3.117.016 4.553 2.642.898 11.404 2.107 19.47 2.685 19.081 1.367 21.037 8.71 4.402 16.523l-12.17 5.719 10.723 6.686c8.81 5.493 10.478 8.308 9.37 15.754-.743 4.988.227 9.65 2.152 10.354 1.928.706 8.084-1.428 13.685-4.745 5.599-3.317 12.42-6.03 15.157-6.03 2.74 0 5.882-2.324 6.99-5.163 1.409-3.62 4.367-4.581 9.884-3.222 9.942 2.46 18.185-.553 18.185-6.645 0-2.925-2.153-4.105-5.715-3.128-3.14.863-8.847 2.452-12.68 3.532-5.164 1.454-9.089-.516-15.145-7.606-4.496-5.262-9.072-8.683-10.17-7.604-1.095 1.083-1.992-.454-1.992-3.413 0-4.886 13.74-19.397 19.03-20.101 1.204-.163 7.65-2.693 14.325-5.628 6.675-2.935 14.3-5.337 16.946-5.337 2.645 0 5.593-1.25 6.55-2.775.958-1.525 8.363-4.602 16.456-6.832 8.093-2.235 13.99-5.22 13.103-6.634-.888-1.415 2.692-7.211 7.95-12.884 7.484-8.07 11.46-9.96 18.253-8.681 5.417 1.02 9.3.063 10.315-2.537 2.92-7.497 3.583-15.87 1.517-19.148-3.761-5.975-2.06-16.044 3.789-22.424 5.592-6.097 5.556-6.528-.906-11.333zM714.817 638.8c0 1.663-1.207 2.29-2.683 1.391-4.285-2.609-13.64 10.245-13.64 18.75 0 4.275 2.286 10.023 5.08 12.776 5.877 5.79 19.868 5.543 24.905-.438 1.902-2.259 6.282-4.105 9.727-4.105 14.176 0 17.78-13.854 6.847-26.326-5.084-5.798-30.236-7.502-30.236-2.048zm30.49-60.008c-4.014 3.957-3.95 5.897.47 14.319 2.816 5.361 6.548 9.744 8.3 9.744 1.75 0 3.178 2.17 3.178 4.826 0 2.652-2.202 4.822-4.894 4.822-2.696 0-5.066 1.085-5.269 2.411-2.689 17.416-2.019 22.033 3.999 27.554 3.637 3.335 5.84 8.043 4.899 10.456-2.769 7.108 4.326 8.91 17.798 4.531 10.533-3.423 14.182-3.315 22.532.67 15.336 7.314 34.117 3.71 36.987-7.099 2.225-8.38 17.763-14.287 24.054-9.141 3.063 2.504 5.736 2.708 7.874.604 3.84-3.782.371-14.665-3.854-12.092-4.538 2.761-3.441-4.06 1.426-8.853 2.389-2.355 5.394-8.398 6.674-13.43 1.309-5.13 5.139-9.875 8.715-10.797 7.39-1.9 8.628-7.325 1.668-7.325-2.59 0-9.986-3.063-16.432-6.81-13.229-7.694-25.99-6.734-40.342 3.032-6.618 4.501-13.387 5.68-28.29 4.919-30.905-1.573-44.699-4.546-42.866-9.24 2.477-6.365-1.448-8.2-6.627-3.1zm126.399 73.032c-1.916-4.14-5.007-6.594-6.878-5.458-1.865 1.135-5.353.46-7.749-1.497-7.04-5.752-22.646 1.467-20.512 9.492.933 3.506.464 7.12-1.04 8.036-4.98 3.031-1.03 18.772 5.315 21.188 4.384 1.67 8.242.139 13.223-5.24 5.394-5.83 11.098-7.83 24.484-8.583l17.451-.983-10.41-4.715c-5.722-2.595-11.97-8.105-13.884-12.24zM379.937 284.497c-6.119 0-5.955 5.243.24 7.584 7.274 2.751-.594 17.765-10.604 20.242-5.873 1.45-7.443 3.558-6.182 8.304.928 3.5.231 10.133-1.547 14.74-2.445 6.338-1.864 11.369 2.391 20.663 4.22 9.218 4.692 13.208 1.894 15.966-2.8 2.755-2.73 4.865.272 8.444 2.2 2.623 4.003 8.445 4.003 12.94 0 7.023 2.832 9.264 20.24 16.008l20.24 7.84-5.969 11.617c-3.281 6.39-7.04 16.515-8.353 22.504-2.357 10.746-2.268 10.856 6.946 8.367 14.176-3.829 27.29-4.476 27.29-1.35 0 1.537 1.836 2.117 4.082 1.292 2.243-.83 8.396 1.306 13.67 4.739 5.275 3.435 11.15 5.265 13.06 4.065 1.906-1.198 7.139-2.407 11.628-2.683 4.489-.277 14.603-2.335 22.478-4.572 10.97-3.114 15.74-3.19 20.401-.32 7.079 4.354 7.239 3.871 2.65-8.016-3.144-8.15-2.381-9.791 8.978-19.276l12.416-10.369-16.928-17.11c-9.313-9.41-17.884-20.95-19.048-25.646-1.946-7.846-.432-9.46 18.876-20.096 11.546-6.361 23.422-11.566 26.391-11.566 2.971 0 8.433-2.99 12.142-6.64 7.116-7.009 7.064-9.157-1.022-42.466-2.048-8.442-6.323-17.66-9.499-20.492-5.161-4.6-5.282-6.08-1.139-13.97 7.258-13.827-3.901-43.577-14.032-37.41-1.603.974-6.013-1.072-9.8-4.547-3.787-3.475-8.371-6.322-10.187-6.322-5.216 0-29.62 13.237-29.62 16.065 0 3.997-16.073 2.066-17.71-2.13-.806-2.066.647-4.55 3.226-5.528 8.631-3.263 4.814-7.035-6.736-6.655-6.283.203-11.425-.83-11.425-2.297 0-1.469-1.104-2.5-2.45-2.292-6.41 1-8.491-.778-4.107-3.51 6.74-4.199 1.28-8.445-14.386-11.194l-12.781-2.244 5.414 8.14c5.067 7.617 5.048 8.344-.279 11.401-3.17 1.819-3.883 3.307-1.608 3.363 2.244.054 3.715 1.253 3.265 2.661-1.066 3.342 14.016 21.016 22.196 26.008 5.812 3.554 5.654 3.71-1.793 1.806-4.488-1.148-9.63-3.86-11.427-6.027-1.795-2.165-6.703-4.814-10.907-5.88-6.784-1.724-7.419-1.063-5.65 5.874 1.454 5.704.652 7.813-2.969 7.813-7.135 0-9.972-1.263-9.04-4.019.45-1.325-4.44-2.414-10.867-2.414-11.286 0-11.612.333-9.534 9.651 2.837 12.735-.964 28.944-6.79 28.944zm-21.228 93.256c-1.503 0-2.425 4.338-2.047 9.64.734 10.35 6.843 13.002 10.186 4.423 2.048-5.26-3.047-14.063-8.139-14.063zm396.569-162.404c3.78 1.835 8.203 6.291 9.828 9.898 3.571 7.93 26.514 9.977 29.377 2.62.96-2.459 3.937-4.471 6.617-4.471 7.212 0 18.184-12.98 18.184-21.508 0-4.462 1.956-7.434 4.899-7.434 2.692 0 4.894-2.17 4.894-4.825 0-2.652 2.57-4.936 5.714-5.075 3.141-.14 4.033-.934 1.98-1.763-2.055-.828-2.961-4.427-2.013-7.994 2.04-7.695-16.769-28.58-25.743-28.58-3.15 0-7.245-2.53-9.095-5.626-2.522-4.215-4.036-4.633-6.03-1.668-1.466 2.177-6.076 3.312-10.252 2.522-4.17-.794-19-1.851-32.955-2.35-21.4-.773-26.469.066-32.423 5.367-5.895 5.247-6.7 8.423-4.893 19.293 2.743 16.521 9.696 24.268 21.778 24.268 12.859 0 19.633 6.998 16.038 16.574-2.226 5.923-1.405 8.082 4.095 10.752zM607.586 668.452c-15.035-8.412-19.737-12.56-17.14-15.12 6.694-6.594 3.617-9.394-7.974-7.253-17.067 3.155-35.223-11.744-42.045-34.498-3.88-12.936-7.652-18.422-16.521-24.03-6.32-3.996-11.492-5.803-11.492-4.018 0 1.784-1.378 3.242-3.062 3.242-1.686 0-2.91-2.53-2.728-5.627.185-3.094-.726-10.19-2.025-15.773-1.4-6.014-1.006-10.972.97-12.175 2.242-1.364 2.264-4.79.065-10.49-3.639-9.425-2.084-11.165 15.78-17.682 9.645-3.514 10.524-4.932 9.454-15.218-1.025-9.824-2.58-11.625-11.631-13.448-5.749-1.158-12.205-4.458-14.35-7.335-4.418-5.93-24.31-5.217-28.213 1.007-1.278 2.038-4.777 2.775-7.776 1.643-3.7-1.398-5.451-.398-5.451 3.107 0 2.841-1.47 5.166-3.265 5.166-1.796 0-3.265 2.162-3.265 4.805 0 5.769-13.657 4.68-15.664-1.25-1.752-5.18-10.208 5.71-10.348 13.328-.143 7.7-2.915 7.066-10.48-2.411-6.1-7.639-12.92-10.813-12.089-5.63 1.18 7.364-1.658 9.831-13.446 11.685-14.244 2.245-14.636 2.719-9.719 11.769 2.633 4.845 2.007 6.966-2.952 10.02-5.773 3.55-5.882 4.484-1.332 11.328 3.616 5.434 3.864 7.455.923 7.455-2.962 0-2.741 1.924.827 7.217 2.677 3.97 7.63 7.227 11.008 7.236 3.379.012 5.776 1.827 5.328 4.038-1.23 6.057 1.631 4.968 15.24-5.806l12.41-9.822 15.178 7.262c12.12 5.8 15.825 9.56 18.392 18.667 1.77 6.274 3.225 13.38 3.234 15.793.013 2.416 11.235 15.74 24.938 29.615 21.496 21.756 26.862 25.51 39.03 27.307 9.804 1.447 15.67 4.431 19.228 9.779 2.815 4.234 7.995 7.696 11.51 7.696 4.101 0 7.128 2.892 8.448 8.07 1.227 4.809 5.125 8.824 9.66 9.946 5.82 1.438 9.18 6.476 14.326 21.492 3.9 11.373 5.44 20.39 3.666 21.471-4.227 2.57-10.018 18.321-7.61 20.693 1.082 1.068 3.023 1.938 4.314 1.938 3.441 0 12.889-15.078 12.889-20.573 0-2.595 2.938-5.637 6.53-6.761 9.042-2.827 8.17-12.67-1.689-19.034-8.792-5.674-8.348-8.131 4.328-23.925 5.835-7.271 6.509-7.377 16.022-2.532 5.46 2.782 10.889 7.526 12.062 10.536 1.687 4.331 2.971 4.652 6.11 1.528 4.991-4.968-9.564-17.621-39.603-34.428zm-29.998 91.658c.065-1.059-8.315-.623-18.62.969-12.08 1.867-21.317 1.74-26.001-.364-4.942-2.218-7.929-2.197-9.342.054-1.144 1.823-4.04 2.573-6.436 1.667-2.396-.903-4.958.08-5.695 2.193-1.608 4.61 25.934 21.393 35.228 21.471 3.607.027 8.393 2.948 10.636 6.488 7.724 12.182 21.005 3.582 14.098-9.13-1.944-3.582-1.422-8.186 1.527-13.436 2.47-4.393 4.541-8.851 4.605-9.912zm-140.32-82.19c-4.127-6.508-4.93-6.62-14.752-2.002-10.304 4.838-10.356 4.984-6.465 17.965 2.895 9.659 2.99 15.525.359 22.388-3.045 7.946-2.634 9.973 2.815 13.899 5.568 4.013 6.736 3.968 9.177-.326 1.54-2.708 4.107-4.126 5.71-3.15 3.885 2.367 10.018-20.764 8.626-32.533-.61-5.148-3.07-12.457-5.47-16.241zM47.07 765.013c4.21-6.33 4.605-9.262 1.709-12.703-2.886-3.422-2.622-6.078 1.12-11.343 4.408-6.2 4.268-7.907-1.433-17.425l-6.323-10.558 7.046-1.813c5.196-1.337 6.585-3.553 5.29-8.431-.968-3.64-.332-7.488 1.412-8.55 1.745-1.061 2.737-6.008 2.206-10.987-.566-5.314 1.438-11.678 4.843-15.384 8.228-8.954 4.371-23.156-6.288-23.156-4.295 0-7.808 1.341-7.808 2.989 0 1.64-5.135 2.725-11.411 2.409-6.277-.314-11.418-2.25-11.427-4.292-.01-2.134-2.798-3.004-6.544-2.037-7.517 1.937-7.575 2.211-3.415 16.491 3.486 11.97-3.956 51.954-11.751 63.136-5.477 7.86-5.797 18.766-.499 17.024 4.727-1.55 15.979 7.299 13.765 10.826-.86 1.37-2.004 9.724-2.54 18.56-.918 15.1-.469 16.143 7.445 17.352 4.631.71 8.885 1.504 9.452 1.77 3.849 1.8 13.091-6.882 11.547-10.849-1.03-2.64.592-8.506 3.604-13.029zm346.686-186.91c-6.341 2.4-18.893-12.187-16.275-18.909.997-2.562.086-6.707-2.026-9.218-3.055-3.621-2.46-5.283 2.918-8.119 6.262-3.303 6.41-4.227 2.008-12.61-3.006-5.73-3.608-10.167-1.638-12.105 1.971-1.944 1.51-5.223-1.254-8.946-4.225-5.69-4.672-5.687-13.888.118-8.115 5.111-8.877 5.195-5.159.566 2.4-2.99 3.408-6.953 2.241-8.811-1.165-1.856.176-4.244 2.984-5.31 2.807-1.058 5.104-3.716 5.104-5.908 0-2.188 2.88-6.547 6.4-9.685 3.52-3.14 6.09-7.278 5.712-9.195-.377-1.921 1.421-3.557 3.998-3.64 2.771-.085 6.217-6.063 8.435-14.634 2.065-7.968 5.467-17.642 7.559-21.496 4.737-8.719 4.864-13.858.34-13.858-1.906 0-11.438-3.715-21.181-8.257-9.743-4.538-21.404-8.642-25.912-9.116-4.513-.474-12.444-4.584-17.629-9.134-5.185-4.55-12.127-8.045-15.428-7.766-3.3.278-6.22-1.304-6.488-3.513-.267-2.211-.67-5.588-.894-7.505-.224-1.914-2.175-2.9-4.333-2.193-4.963 1.63-15.663-7.211-15.663-12.939 0-2.912-2.21-3.635-6.759-2.215-5.059 1.581-7.19.494-8.47-4.333-1.487-5.607-2.95-6.02-11.197-3.188-5.604 1.923-9.485 5.561-9.485 8.893 0 15.143-7.316 25.932-21.892 32.285-9.999 4.357-14.162 7.894-12.951 11.001.982 2.521-.443 5.425-3.164 6.456-6.472 2.445-30.549-1.38-30.549-4.856 0-1.479-3.16-4.357-7.023-6.394-6.234-3.285-6.735-3.027-4.46 2.299 1.412 3.3 3.584 12.007 4.826 19.347l2.258 13.344h-10.642c-5.853 0-12.41 1.077-14.572 2.393-2.342 1.427-6.401-.719-10.052-5.307-5.33-6.701-6.643-7.074-10.162-2.872-2.222 2.652-8.85 4.98-14.73 5.17-13.275.43-17.259 3.917-9.412 8.243 4.335 2.388 5.405 5.472 3.924 11.285-1.271 4.996-.804 7.245 1.245 5.998 1.806-1.099 9.152.95 16.324 4.555 7.172 3.605 16.124 6.552 19.892 6.552 4.075 0 5.969 1.41 4.673 3.475-1.198 1.91.942 5.627 4.758 8.26 3.817 2.632 6.118 6.093 5.117 7.69-2.806 4.475 7.343 17.73 16.836 21.993 7.112 3.188 8.196 5.326 6.623 13.064-1.307 6.436-.396 14.024-2.966 35.56-1.583 13.265-4.87 29.544-7.303 36.18-3.837 10.46-3.784 12.056.403 12.056 2.654 0 3.958 1.386 2.895 3.078-3.67 5.852 16.244 12.627 34.452 11.725 18.89-.934 35.783 3.07 39.648 9.4 2.542 4.164 18.011 3.713 22.253-.646 1.418-1.46 3.07-6.149 3.67-10.425.719-5.104 5.473-10.176 13.871-14.795 13.195-7.259 14.079-7.215 41.903 1.942 5.835 1.917 13.003 4.211 15.928 5.095 3.13.945 9.553-2.474 15.62-8.315 5.666-5.456 11.669-9.921 13.34-9.921 1.669 0 4.728-3.115 6.795-6.917 3.18-5.856 2.967-6.62-1.396-4.973zm31.256 75.401c1.086 12.625 15.725-6.013 15.531-19.775-.123-8.746-5.494-12.326-12.758-8.497-5.812 3.065-6.743 5.616-5.114 14 1.097 5.639 2.15 12.063 2.34 14.272zm235.218-51.7c2.165 1.315 2.68.097 1.378-3.244-1.535-3.94-.285-5.35 4.74-5.35 5.673 0 6.147-.809 2.8-4.784-2.218-2.629-3.18-6.971-2.136-9.65 1.043-2.673.475-4.863-1.267-4.863-1.739 0-3.162-2.892-3.162-6.431 0-3.537 1.471-6.432 3.266-6.432 1.796 0 3.262-2.124 3.262-4.722 0-2.897-1.909-4-4.937-2.857-2.715 1.03-6.922.242-9.347-1.738-2.427-1.984-11.588-4.28-20.364-5.107-8.774-.83-19.991-2.063-24.928-2.744-6.576-.91-9.007.146-9.083 3.944-.09 4.557-.628 4.503-4.44-.443-5.671-7.357-8.513-7.123-8.513.7 0 7.165 25.315 45.024 31.725 47.444 2.302.872 4.185 4.092 4.185 7.16 0 3.065 5.491 9.421 12.204 14.125 14.202 9.954 15.274 10.256 12.666 3.562-2.447-6.28 7.292-21.407 11.95-18.57zm158.036 63.608c-5.724.373-15.668-1.306-22.093-3.734-8.655-3.27-14-3.544-20.614-1.066-4.914 1.839-12.51 3.344-16.881 3.344-4.374 0-7.951 1.445-7.951 3.215 0 1.769-4.228 3.214-9.392 3.214-5.168 0-11.185 2.128-13.375 4.722-2.186 2.598-4.936 4.597-6.112 4.442-7.06-.917-13.687.898-12.157 3.336.983 1.569-.398 4.638-3.072 6.825-2.673 2.186-4.86 5.97-4.86 8.405 0 2.436-1.362 4.432-3.025 4.432-11.093 0-.3 28.626 11.073 29.376 6.094.403 6.05.555-.54 1.813-6.216 1.187-6.719 2.372-3.739 8.811 3.035 6.56 5.427 7.34 20.238 6.597 12.433-.625 20.77 1.135 32.077 6.769 8.4 4.187 16.2 9.084 17.33 10.885 3.648 5.814 5.442 3.487 3.053-3.959-2.417-7.544-8.807-13.111-25.66-22.374-7.444-4.086-8.439-5.526-3.888-5.628 4.889-.108 5.347-1.044 2.287-4.673-4.243-5.038.582-10.19 6.29-6.717 1.795 1.094 3.267.456 3.267-1.417s-2.206-3.405-4.898-3.405c-2.693 0-4.898-2.604-4.898-5.788 0-3.183-1.723-7.488-3.83-9.56-2.928-2.885-2.781-5.873.625-12.703 4.153-8.327 4.535-8.466 5.644-2.046.86 5.004 3.369 6.759 9.164 6.431 4.39-.247 8.151-1.898 8.36-3.668.209-1.768.578-5.245.819-7.723.24-2.483 3.374-5.06 6.968-5.732a2307.94 2307.94 0 0 0 14.693-2.823c12.053-2.357 13.709-2.274 25.255 1.288 11.08 3.42 15.189 1.094 12.099-6.845-1.176-3.02-5.608-4.482-12.257-4.044zM683.161 624.07c8.116 2.537 15.333 9.094 15.333 13.93 0 4.539 2.03 4.345 10.726-1.012 3.975-2.451 11.983-4.524 17.794-4.606 13.608-.194 16.946-2.393 14.965-9.858-1.015-3.822.992-7.842 5.441-10.916 4.42-3.05 5.736-5.663 3.523-7.012-6.899-4.199-13.864-21.284-10.369-25.432 3.648-4.328 3.597-18.112-.063-18.112-1.265 0-3.047 1.809-3.957 4.02-1.071 2.605-2.604 2.888-4.35.805-1.482-1.769-5.635-4.822-9.226-6.784-3.593-1.96-6.53-6.301-6.53-9.645 0-3.346-3.305-7.936-7.347-10.206-4.039-2.266-7.344-6.245-7.344-8.84 0-2.599-3.081-7.76-6.849-11.468-6.696-6.595-7.973-6.667-29.061-1.615-2.692.646-4.352 3.152-3.684 5.57.929 3.346 1.873 6.688 2.831 10.025.885 3.094-.025 5.63-2.033 5.63-3.542 0-4.913-4.101-3.945-11.818.261-2.076-1.034-4.696-2.878-5.818-1.844-1.124-3.351-.325-3.351 1.766 0 5.859-19.083.971-33.878-8.674-7.023-4.575-15.126-8.699-18.008-9.157-9.028-1.442-16.222 4.142-14.362 11.148.945 3.56.177 6.472-1.706 6.472-1.884 0-4.357 2.894-5.496 6.433-2.222 6.892-12.858 8.74-16.54 2.872-1.562-2.49-3.04-2.275-4.918.721-1.71 2.726-.374 6.402 3.673 10.115 3.497 3.21 6.358 8.45 6.358 11.644 0 3.193 2.972 8.459 6.604 11.696 3.635 3.24 5.231 6.726 3.55 7.753-6.01 3.658 14.02 21.093 25.041 21.799l10.593.676-14.927-21.033c-9.09-12.813-14.53-23.76-13.916-28.01.885-6.112 2.835-6.887 15.7-6.245 38.188 1.914 52.746 3.718 56.813 7.044 3.429 2.803 4.803 2.158 6.142-2.89 1.744-6.575 8.868-9.21 8.868-3.281 0 1.768-1.65 3.216-3.667 3.216-2.446 0-2.244 1.685.619 5.085 3.452 4.095 3.49 6.337.21 11.514-3.48 5.488-3.063 7.302 2.83 12.338 6.315 5.394 6.438 6.17 1.41 8.943-3.741 2.06-4.323 3.753-1.822 5.278 5.142 3.13 4.603 8.294-.863 8.294-2.504 0-5.43 2.263-6.507 5.027-1.078 2.766-3.438 4.128-5.246 3.027-1.81-1.101-3.288.252-3.288 3.011 0 2.757-1.568 5.013-3.484 5.013-4.434 0-.718 12.552 5.924 20.004 4.618 5.187 5.336 5.029 11.368-2.525 4.728-5.923 8.255-7.49 13.299-5.912zm80.825 150.708c-1.688 1.027-4.256-.16-5.713-2.638-3.06-5.196-23.777-18.112-29.08-18.13-1.973-.01-6.712 2.659-10.536 5.927l-6.952 5.94 8.126 7.525c5.045 4.667 6.973 8.662 5.077 10.527-4.653 4.584-.465 12.797 4.467 8.761 2.92-2.381 5.136-.879 8.179 5.548 3.806 8.03 4.38 8.266 6.479 2.6 1.725-4.663 2.953-5.18 4.907-2.07 5.162 8.225 8.076-3.75 3.184-13.068-6.163-11.732-5.884-13.283 1.655-9.306 8.1 4.27 13.273 4.241 13.273-.078 0-1.87-1.381-2.564-3.066-1.538zm-58.476-88.31c1.82 0 .076-5.159-3.88-11.458-5.19-8.276-6.693-14.471-5.404-22.294 1.87-11.36-3.786-21.01-14.632-24.97-7.547-2.753-13.78 5.234-9.899 12.69 3.282 6.311 3.06 35.113-.296 38.421-1.132 1.115-.69 4.537.98 7.61 1.668 3.073 2.225 6.383 1.238 7.354-.992.976 1.264 3.386 5.01 5.361 3.745 1.976 6.84 6.072 6.882 9.103.057 4.378 1.394 3.855 6.475-2.525 3.522-4.42 7.26-10.571 8.31-13.667 1.045-3.094 3.396-5.625 5.216-5.625zm-418.353-57.885c-1.797 0-3.264 1.435-3.264 3.188 0 3.283-18.086 2.58-21.552-.837-1.066-1.049-3.998-1.132-6.516-.18-2.757 1.045-4.579-.325-4.579-3.435 0-5.536-1.852-5.905-29.257-5.783-16.672.071-35.049-5.944-39.672-12.989-2.615-3.98-17.032-5.714-55.124-6.631-17.057-.411-33.726-2.313-37.042-4.225-3.314-1.915-13.223-2.798-22.018-1.964-10.046.95-17.802.033-20.863-2.469-5.982-4.887-21.279-1.66-21.279 4.494 0 4.777-8.752 9.334-12.982 6.76-1.43-.873-4.363.507-6.518 3.064-3.09 3.668-2.822 6.194 1.262 11.937 2.849 4.006 5.18 10.737 5.18 14.957 0 6.58 1.165 7.386 8.161 5.656 4.489-1.113 8.161-.712 8.161.883 0 4.322 14.09 7.137 17.738 3.546 1.736-1.707 7.27-3.11 12.297-3.11 6.832 0 9.142 1.558 9.142 6.164 0 3.388 1.575 6.681 3.499 7.311 2.009.659.311 5.144-3.983 10.517-4.57 5.729-7.118 12.762-6.55 18.097.512 4.8-.496 9.596-2.241 10.656-1.743 1.063-2.459 4.607-1.591 7.88.868 3.271-.882 8.371-3.89 11.338-4.957 4.88-5.002 6.09-.46 12.917 4.417 6.642 4.443 8.325.217 14.27-3.835 5.392-4.004 7.978-.852 12.951 3.217 5.076 2.935 7.205-1.531 11.602-8.192 8.072-6.632 14.512 4.442 18.314 6.617 2.275 12.188 7.83 16.762 16.716 3.768 7.32 8.489 14.375 10.492 15.676 5.707 3.701 7.247 2.989 10.977-5.076 2.74-5.923 7.572-8.27 22.56-10.949 10.492-1.878 26.143-3.33 34.784-3.23 14.209.165 16.648-.936 25.537-11.56 5.407-6.459 12.661-11.746 16.122-11.746 3.997 0 6.29-2.223 6.29-6.093 0-3.352 4.344-10.67 9.65-16.27 9.558-10.073 9.6-10.28 4.278-21.272l-5.372-11.097 13.103-18.458c7.208-10.155 14.019-20.912 15.137-23.907 1.121-2.997 8.357-7.308 16.084-9.58 23.097-6.792 38.53-18.39 38.53-28.956-.006-4.992-1.474-9.077-3.269-9.077zm.23-278.235c5.073-1.589 7.19-.49 8.487 4.404.95 3.587 5.99 7.983 11.195 9.768 8.475 2.91 11.05 6.58 9.854 14.038-.639 3.984 3.629 2.737 9.965-2.91 5.58-4.975 5.972-4.934 5.972.599 0 3.251 3.093 9.159 6.877 13.127 7.915 8.299 17.172 6.811 14.24-2.29-1.061-3.291-.415-8.548 1.436-11.675 1.85-3.13 3.432-4.247 3.513-2.478.083 1.768 1.495 1.124 3.138-1.434 3.73-5.806-1.476-16.25-8.099-16.25-2.937 0-4.782-3.136-4.782-8.123 0-5.606-2.42-9.024-7.82-11.047-4.299-1.61-8.34-4.352-8.976-6.097-.66-1.808-6.585-.554-13.791 2.915-9.265 4.46-14.25 5.234-18.696 2.888-7.678-4.048-19.272 2.454-19.272 10.804 0 4.476 1.607 5.372 6.758 3.761zm46.277-32.731l-9.38 4.352-9.38 4.362 9.165-1.211c5.039-.668 10.915.438 13.058 2.454 2.144 2.015 7.569 5.25 12.057 7.186 6.951 2.997 8.522 2.595 10.595-2.709 1.338-3.427.938-8.98-.887-12.341-2.788-5.133-1.987-6.443 4.988-8.171 4.571-1.127 10.423-5.025 13.005-8.658 4.153-5.84 4.05-7.07-.89-10.66-5.193-3.771-5.07-4.542 1.755-10.841 17.778-16.415 2.141-30.534-26.117-23.585-5.546 1.367-8.539 17.025-3.263 17.079 1.347.012 4.112 3.56 6.146 7.883 3.06 6.5 2.683 8.759-2.177 13.093-9.095 8.108-19.403 1.393-17.368-11.321.9-5.633.101-9.68-1.912-9.68-1.903 0-3.461 1.928-3.461 4.278 0 2.35-3.51 11.103-7.795 19.444l-7.797 15.17 9.83 1.938 9.828 1.938z" id="Layer_1" fill="#F3F3F8" fill-rule="nonzero"/></g></svg>